<svg width="14" height="12" viewBox="0 0 14 12" fill="none" xmlns="http://www.w3.org/2000/svg">
<path d="M3.85 0C1.72985 0 0 1.69457 0 3.77146C0 5.17587 1.08068 6.49819 2.39805 7.85431C3.71542 9.21042 5.33693 10.5839 6.62881 11.8494C6.72727 11.9458 6.86078 12 7 12C7.13921 12 7.27273 11.9458 7.37119 11.8494C8.66307 10.5839 10.2846 9.21042 11.602 7.85431C12.9193 6.49819 14 5.17587 14 3.77146C14 1.69457 12.2701 0 10.15 0C8.93325 0 7.87389 0.639944 7 1.72702C6.12611 0.639944 5.06675 0 3.85 0Z" fill="#E0E0E0"/>
</svg>