<svg width="15" height="14" viewBox="0 0 15 14" fill="none" xmlns="http://www.w3.org/2000/svg">
<path d="M4.125 0C1.85342 0 0 1.97699 0 4.40004C0 6.03851 1.15787 7.58122 2.56934 9.16336C3.98081 10.7455 5.71814 12.3479 7.10229 13.8243C7.20779 13.9368 7.35084 14 7.5 14C7.64916 14 7.79221 13.9368 7.89771 13.8243C9.28186 12.3479 11.0192 10.7455 12.4307 9.16336C13.8421 7.58122 15 6.03851 15 4.40004C15 1.97699 13.1466 0 10.875 0C9.57134 0 8.43631 0.746602 7.5 2.01486C6.56369 0.746602 5.42866 0 4.125 0Z" fill="#FC5C2B"/>
</svg>