<svg width="52" height="52" viewBox="0 0 52 52" fill="none" xmlns="http://www.w3.org/2000/svg">
<circle cx="26" cy="26" r="26" fill="#F4F4F4"/>
<g clip-path="url(#clip0)">
<path d="M37.5667 16.7039C37.3783 15.928 37.1414 15.1644 36.8576 14.4176C36.306 13.0887 35.203 13.1278 33.9424 13.1278H29.4711C29.0377 11.7599 27.2059 11.2128 25.8862 11.0369C24.2316 10.8219 22.4982 11.545 22.2028 13.2646C20.7635 13.3491 19.33 13.5122 17.9087 13.7532C16.786 13.9486 15.2102 14.0072 15.0526 15.3751C14.8557 16.9384 15.2496 18.7753 15.6042 20.2996C15.6329 20.4017 15.6948 20.4915 15.7803 20.5552C15.8657 20.6188 15.97 20.6526 16.0769 20.6513H16.1951V20.6708C15.775 25.0937 15.6499 29.5393 15.8208 33.9786C15.8799 35.6787 15.7026 37.8283 16.4118 39.4307C16.983 40.7595 18.3224 41.4239 19.7012 41.6975C21.5527 42.0688 23.5422 42.0101 25.4331 41.9711C27.5352 41.9256 29.633 41.7625 31.7166 41.4825C33.2136 41.2871 35.3803 41.2871 36.3651 39.9387C37.35 38.5513 36.956 36.3822 36.9363 34.8189C36.8379 29.9726 36.6409 25.1328 36.3454 20.2996C37.1727 20.0064 37.9409 19.5961 38 18.6971C38 18.0718 37.7242 17.3292 37.5667 16.7039ZM26.2998 12.1117C26.9498 12.2485 27.9544 12.522 28.368 13.1278C26.6544 13.1278 24.921 13.1278 23.1876 13.206C23.5225 11.9358 25.2165 11.8772 26.2998 12.1117H26.2998Z" fill="#FF8159"/>
<path d="M20.8437 23.8756C20.8634 23.2503 19.8786 23.2503 19.8589 23.8756C19.6816 28.7415 19.6291 33.6073 19.7013 38.4731C19.721 39.0985 20.7058 39.0985 20.6861 38.4731C20.6074 33.6073 20.6599 28.7415 20.8437 23.8756Z" fill="#4A3B2A"/>
<path d="M26.9502 24.0124C26.6941 28.7805 26.4183 33.5682 26.1623 38.3363C26.1229 38.9616 27.1078 38.9616 27.1471 38.3363C27.4032 33.5682 27.679 28.7805 27.935 24.0124C27.9744 23.3675 26.9896 23.387 26.9502 24.0124Z" fill="#4A3B2A"/>
<path d="M33.864 23.3481C33.8443 22.7228 32.8594 22.7228 32.8791 23.3481C32.9977 28.2652 32.7409 33.1842 32.1109 38.0628C32.0321 38.6882 33.017 38.6882 33.0958 38.0628C33.7258 33.1842 33.9826 28.2652 33.864 23.3481Z" fill="#4A3B2A"/>
<path d="M32.5246 20.9054C26.8765 21.0427 21.2254 20.8273 15.6046 20.2606C14.9743 20.2019 14.9743 21.179 15.6046 21.2376C21.2254 21.804 26.8765 22.0194 32.5246 21.8825C33.1549 21.863 33.1549 20.8859 32.5246 20.9054Z" fill="white"/>
<path d="M32.4849 16.0981C32.3545 15.9302 32.2606 15.7372 32.2091 15.5314C32.1933 15.4685 32.1644 15.4095 32.1245 15.3581C32.0845 15.3068 32.0343 15.2642 31.977 15.233C31.9196 15.2018 31.8564 15.1827 31.7913 15.1769C31.7262 15.1711 31.6606 15.1787 31.5985 15.1992C31.5362 15.2168 31.478 15.2465 31.4274 15.2865C31.3767 15.3266 31.3346 15.3763 31.3034 15.4326C31.2723 15.489 31.2527 15.5509 31.2459 15.6148C31.2391 15.6788 31.2451 15.7434 31.2637 15.805C31.3607 16.1736 31.5428 16.5148 31.7955 16.8016C31.8877 16.8909 32.0114 16.9408 32.1402 16.9408C32.269 16.9408 32.3927 16.8909 32.4849 16.8016C32.5751 16.7063 32.6252 16.5805 32.6252 16.4499C32.6252 16.3192 32.5751 16.1934 32.4849 16.0981Z" fill="white"/>
<path d="M34.5922 15.9225C34.5134 15.7075 34.415 15.4926 34.3362 15.2776C34.2984 15.154 34.2133 15.05 34.0992 14.9879C33.985 14.9258 33.8509 14.9106 33.7256 14.9454C33.4892 15.0236 33.2725 15.2972 33.3907 15.5512C33.4695 15.7661 33.568 15.9811 33.6468 16.1961C33.6845 16.3197 33.7696 16.4236 33.8838 16.4857C33.9979 16.5478 34.132 16.5631 34.2574 16.5283C34.3795 16.4872 34.4817 16.4022 34.5437 16.2901C34.6057 16.1779 34.623 16.0467 34.5922 15.9225Z" fill="white"/>
<path d="M35.6951 17.505C35.6631 17.4494 35.6203 17.4007 35.5692 17.3617C35.5181 17.3227 35.4597 17.2942 35.3973 17.2778C35.335 17.2615 35.27 17.2576 35.2062 17.2664C35.1423 17.2752 35.0808 17.2965 35.0253 17.3291C34.9447 17.3813 34.88 17.4545 34.8384 17.5406C34.7967 17.6267 34.7796 17.7225 34.789 17.8176C34.7183 17.8928 34.6743 17.9889 34.6637 18.0911C34.653 18.1934 34.6762 18.2963 34.7299 18.3843C34.7618 18.4399 34.8046 18.4886 34.8557 18.5276C34.9069 18.5666 34.9653 18.5951 35.0276 18.6114C35.0899 18.6278 35.1549 18.6317 35.2188 18.6229C35.2827 18.6141 35.3441 18.5928 35.3996 18.5602C35.5707 18.4511 35.6965 18.2847 35.7541 18.0912C35.7883 17.9952 35.8007 17.8929 35.7905 17.7915C35.7802 17.6902 35.7477 17.5924 35.6951 17.505Z" fill="white"/>
</g>
<defs>
<clipPath id="clip0">
<rect width="23" height="31" fill="white" transform="translate(15 11)"/>
</clipPath>
</defs>
</svg>