<svg width="28" height="42" viewBox="0 0 28 42" fill="none" xmlns="http://www.w3.org/2000/svg">
<path d="M15.7724 2.37906C27.79 4.69096 24.667 26.096 10.1787 22.7079C-0.297129 20.2764 2.70726 -0.152085 15.7724 2.37906Z" fill="white"/>
<path d="M6.34415 20.6152C6.34415 20.6152 1.34342 28.0891 0.157471 37.257L4.11062 34.6661L5.88954 41.8409L11.3251 22.9271" fill="white"/>
<path d="M20.3185 20.1169C20.3185 20.1169 24.8647 29.6835 26.8412 38.6521L21.3068 34.2674L18.5396 38.2535L15.1794 22.9072" fill="white"/>
<path d="M17.1561 3.57486C29.1737 5.88676 26.0507 27.2918 11.5624 23.9037C1.08654 21.4722 4.09093 1.04372 17.1561 3.57486Z" fill="#FF6338"/>
<path d="M13.1447 23.2261C12.1761 23.2261 11.1681 23.1065 10.1403 22.8673C7.64978 22.2893 5.75227 20.675 4.66515 18.2236C3.69663 16.0512 3.45944 13.3008 3.99312 10.67C5.06047 5.528 9.13221 0.924115 15.813 2.21958C19.193 2.87728 21.6637 5.0696 22.7706 8.39796C24.0751 12.3641 23.1461 17.0676 20.4184 20.0771C18.5407 22.1498 16.0305 23.2261 13.1447 23.2261ZM13.619 2.31923C8.42064 2.31923 5.21859 6.32521 4.30937 10.7298C3.75593 13.3008 3.99312 15.9714 4.94187 18.104C5.67321 19.7582 7.19517 21.8509 10.1996 22.5684C14.2318 23.5051 17.7698 22.5484 20.1813 19.8778C22.8299 16.948 23.7391 12.384 22.4543 8.51754C21.387 5.28884 18.9953 3.17623 15.734 2.53846C15.0026 2.37902 14.2911 2.31923 13.619 2.31923Z" fill="#333333"/>
<path d="M5.89019 42.0002C5.81113 42.0002 5.75183 41.9404 5.73206 41.8806L4.01244 34.925L0.237189 37.3963C0.177892 37.4362 0.118594 37.4362 0.0592972 37.3963C0 37.3564 0 37.2967 0 37.2369C1.18594 28.1287 6.16691 20.5951 6.22621 20.5353C6.26574 20.4556 6.36457 20.4357 6.44363 20.4955C6.52269 20.5353 6.54246 20.635 6.48316 20.7147C6.44363 20.7944 1.60102 28.0689 0.355783 36.9379L4.01244 34.5463C4.05198 34.5263 4.11127 34.5064 4.15081 34.5263C4.19034 34.5463 4.22987 34.5861 4.24963 34.6459L5.89019 41.2428L11.1676 22.907C11.1874 22.8273 11.2862 22.7675 11.3653 22.8074C11.4444 22.8273 11.5037 22.9269 11.4641 23.0067L6.02855 41.9005C6.02855 41.9404 5.96925 42.0002 5.89019 42.0002Z" fill="#333333"/>
<path d="M26.8423 38.8113C26.8028 38.8113 26.7633 38.7914 26.7435 38.7714L21.3474 34.4864L18.6791 38.333C18.6395 38.3928 18.5802 38.4127 18.5209 38.3928C18.4616 38.3728 18.4023 38.333 18.4023 38.2732L15.0422 22.9269C15.0224 22.8472 15.0817 22.7475 15.1608 22.7276C15.2398 22.7077 15.3386 22.7675 15.3584 22.8472L18.6395 37.8347L21.2091 34.1476C21.2288 34.1078 21.2684 34.0878 21.3079 34.0878C21.3474 34.0878 21.387 34.0878 21.4265 34.1277L26.6051 38.2333C24.6088 29.5039 20.2406 20.2562 20.201 20.1765C20.1615 20.0968 20.201 19.9971 20.2801 19.9573C20.3591 19.9174 20.458 19.9573 20.4975 20.037C20.537 20.1367 25.0832 29.7231 27.04 38.612C27.0597 38.6718 27.0202 38.7515 26.9609 38.7914C26.9016 38.7914 26.8621 38.8113 26.8423 38.8113Z" fill="#333333"/>
<path d="M16.21 15.89V17H11.41V15.89H13.168V10.832C13.168 10.632 13.174 10.426 13.186 10.214L11.938 11.258C11.866 11.314 11.794 11.35 11.722 11.366C11.654 11.378 11.588 11.378 11.524 11.366C11.464 11.354 11.41 11.334 11.362 11.306C11.314 11.274 11.278 11.24 11.254 11.204L10.786 10.562L13.432 8.312H14.65V15.89H16.21Z" fill="white"/>
</svg>
