<svg width="92" height="52" viewBox="0 0 92 52" fill="none" xmlns="http://www.w3.org/2000/svg">
<path d="M14.3226 50.2542C12.4033 50.4639 10.6362 50.2523 9.08477 49.5395C7.21502 48.682 5.90836 47.1892 5.1993 45.1042C2.11028 36.0238 11.4685 18.1233 11.8694 17.3663C12.1028 16.9225 12.6524 16.7515 13.0996 16.985C13.5445 17.2187 13.7157 17.768 13.4812 18.212C13.3872 18.3903 4.08641 36.177 6.92529 44.5201C7.47547 46.1367 8.43226 47.238 9.84736 47.888C14.3423 49.9526 22.0259 46.8546 30.9263 39.3936C36.5236 34.704 42.0037 28.7322 46.423 22.6271C49.0804 17.6998 51.9515 13.763 52.2009 13.4237C52.4831 13.0385 53.0141 12.9382 53.4185 13.1889C53.8218 13.4409 53.9635 13.9615 53.7425 14.3822C52.1988 17.3168 50.2593 20.393 48.0456 23.4557C45.1897 28.7064 42.6001 35.0195 44.0462 38.7533C44.6411 40.2862 45.9118 41.2297 47.9307 41.6377C58.724 43.8142 79.6794 11.0854 86.8572 -1.70667C87.0805 -2.10709 87.5716 -2.27848 87.995 -2.1053C88.4195 -1.93336 88.6511 -1.47063 88.5321 -1.02788C88.0132 0.903255 87.0202 6.71737 89.172 8.06869C90.3048 8.77813 93.4795 8.8793 102.051 1.55254C102.432 1.22514 103.009 1.27071 103.335 1.65115C103.663 2.03248 103.618 2.60658 103.235 2.93298C95.9215 9.18511 91.0015 11.3685 88.1988 9.60714C86.3102 8.42023 85.9225 5.75264 86.0246 3.32071C83.3782 7.74049 78.8126 15.0765 73.5983 22.2113C62.4141 37.5156 53.6586 44.6465 47.5661 43.4194C44.9252 42.8862 43.1689 41.5362 42.3441 39.409C41.3243 36.7774 41.937 33.2084 43.2512 29.5582C34.2584 40.1587 22.8047 49.3263 14.3226 50.2542Z" fill="#FF6338"/>
<g filter="url(#filter0_d)">
<path d="M16 15L17.25 12.25L20 11L17.25 9.75L16 7L14.75 9.75L12 11L14.75 12.25L16 15Z" fill="#FC5C2B"/>
</g>
<defs>
<filter id="filter0_d" x="8" y="3" width="16" height="16" filterUnits="userSpaceOnUse" color-interpolation-filters="sRGB">
<feFlood flood-opacity="0" result="BackgroundImageFix"/>
<feColorMatrix in="SourceAlpha" type="matrix" values="0 0 0 0 0 0 0 0 0 0 0 0 0 0 0 0 0 0 127 0" result="hardAlpha"/>
<feOffset/>
<feGaussianBlur stdDeviation="2"/>
<feComposite in2="hardAlpha" operator="out"/>
<feColorMatrix type="matrix" values="0 0 0 0 1 0 0 0 0 1 0 0 0 0 1 0 0 0 0.25 0"/>
<feBlend mode="normal" in2="BackgroundImageFix" result="effect1_dropShadow"/>
<feBlend mode="normal" in="SourceGraphic" in2="effect1_dropShadow" result="shape"/>
</filter>
</defs>
</svg>
